<?xml version="1.0" standalone="no"?>
<!DOCTYPE svg PUBLIC "-//W3C//DTD SVG 20010904//EN"
 "http://www.w3.org/TR/2001/REC-SVG-20010904/DTD/svg10.dtd">
<svg version="1.0" xmlns="http://www.w3.org/2000/svg"
 width="1280.000000pt" height="788.000000pt" viewBox="0 0 1280.000000 788.000000"
 preserveAspectRatio="xMidYMid meet">
<g transform="translate(0.000000,788.000000) scale(0.100000,-0.100000)"
fill="#000000" stroke="none">
<path d="M990 7825 c0 -27 -7 -39 -31 -57 -28 -21 -30 -27 -25 -61 5 -31 2
-42 -18 -62 -50 -50 -132 -25 -241 76 -39 36 -45 39 -51 23 -3 -11 -12 -36
-20 -58 -14 -37 -14 -40 10 -75 40 -58 44 -154 11 -261 -14 -48 -30 -134 -36
-198 -5 -62 -14 -124 -19 -138 -6 -14 -10 -47 -10 -74 0 -31 -14 -88 -41 -161
-22 -63 -53 -150 -68 -194 -47 -131 -147 -314 -198 -359 -60 -53 -76 -87 -68
-146 6 -42 4 -51 -19 -75 -27 -29 -27 -36 0 -145 25 -100 13 -193 -29 -229
-10 -7 -17 -28 -17 -45 0 -57 -19 -103 -54 -130 -21 -16 -40 -42 -49 -70 -14
-41 -14 -46 0 -58 21 -17 49 -81 63 -142 10 -45 9 -52 -15 -86 -21 -30 -25
-48 -24 -91 1 -30 -1 -69 -5 -87 -6 -26 -3 -38 18 -63 14 -17 42 -65 63 -107
33 -70 35 -79 25 -116 -10 -38 -9 -43 15 -68 29 -31 43 -28 43 7 0 29 14 39
45 31 28 -7 38 -45 26 -96 -6 -28 -4 -39 12 -57 18 -20 19 -26 7 -47 -18 -35
-35 -38 -64 -15 l-26 20 0 -69 0 -69 50 -42 c64 -54 68 -91 15 -150 -40 -44
-43 -61 -16 -85 10 -9 40 -65 67 -124 27 -59 64 -134 83 -167 67 -119 65 -109
47 -180 -9 -35 -16 -73 -16 -84 0 -34 45 -76 102 -94 88 -28 152 -68 163 -102
16 -49 22 -54 110 -80 90 -28 105 -41 105 -93 0 -23 14 -40 77 -93 42 -35 91
-86 107 -113 26 -42 31 -61 36 -141 3 -54 10 -99 18 -108 18 -21 35 -24 267
-42 284 -22 269 -18 340 -84 33 -31 87 -74 120 -96 33 -21 85 -55 115 -76 68
-45 487 -278 594 -330 65 -32 91 -39 139 -39 77 0 455 -47 528 -66 93 -23 99
-21 99 31 0 77 47 89 315 77 l159 -7 45 -65 c25 -36 114 -135 197 -220 167
-172 213 -239 239 -355 23 -97 44 -126 138 -190 45 -31 100 -69 121 -85 21
-17 46 -30 56 -30 26 0 75 59 114 137 34 69 38 73 86 87 40 12 74 13 172 7 68
-5 131 -12 142 -16 10 -5 29 -32 42 -62 16 -34 49 -79 92 -122 66 -67 101
-119 172 -258 20 -39 63 -107 95 -150 37 -49 75 -115 101 -178 23 -55 53 -120
67 -145 14 -25 35 -71 47 -103 23 -60 52 -84 125 -101 17 -4 41 -18 55 -32 21
-20 42 -25 120 -33 81 -9 100 -14 138 -42 35 -26 46 -29 53 -18 16 26 9 76
-20 130 -25 48 -29 67 -34 179 -5 117 -4 129 20 190 18 48 34 71 58 87 17 12
45 43 60 70 39 68 65 93 95 93 14 0 35 6 45 14 19 14 19 15 -8 40 -15 14 -27
32 -27 40 0 21 41 30 96 22 57 -7 81 3 157 67 35 30 95 74 134 99 75 49 95 69
74 76 -21 7 -51 41 -51 57 0 17 32 32 76 37 23 3 29 -2 36 -30 11 -42 29 -42
154 4 55 20 130 42 168 49 62 12 73 11 124 -6 33 -11 82 -19 122 -19 58 0 70
3 82 22 11 17 27 22 74 26 53 3 64 1 104 -27 25 -17 56 -31 70 -31 20 0 32
-10 50 -41 37 -60 48 -69 87 -69 26 0 42 8 63 30 33 35 50 37 75 10 17 -19 64
-27 79 -13 3 4 -8 21 -25 39 -53 55 -19 88 40 38 56 -47 241 -105 241 -76 0
10 -64 44 -143 76 -20 8 -40 22 -43 31 -10 24 14 62 47 75 16 7 33 18 40 26
17 21 -17 30 -40 10 -19 -18 -61 -22 -61 -6 0 6 -11 15 -24 22 -20 8 -32 7
-61 -6 -33 -16 -38 -16 -60 -2 -29 19 -41 56 -27 83 6 11 27 28 46 38 35 19
36 19 88 -4 80 -35 93 -36 130 -8 46 35 118 57 186 57 101 0 130 9 153 46 28
45 46 43 69 -10 10 -24 23 -47 29 -50 9 -6 61 41 61 56 0 12 34 10 47 -3 7 -7
17 -2 32 20 27 38 53 39 80 6 l20 -26 38 21 c56 30 137 28 167 -5 27 -29 45
-31 87 -9 38 19 59 12 59 -19 0 -13 15 -37 36 -58 20 -18 40 -44 45 -57 10
-25 37 -29 65 -7 10 8 36 19 57 25 31 9 45 23 82 80 41 63 48 70 77 70 65 -1
110 -27 174 -98 34 -37 105 -99 158 -136 103 -73 142 -112 152 -153 7 -25 0
-144 -12 -235 -6 -40 -4 -48 10 -48 9 0 16 8 16 20 0 20 27 40 55 40 20 0 48
-64 40 -90 -3 -10 -17 -25 -30 -34 -32 -21 -31 -38 4 -78 15 -18 38 -52 49
-74 14 -27 37 -51 65 -67 51 -30 108 -91 136 -144 24 -48 42 -64 111 -98 71
-35 92 -54 85 -76 -4 -12 6 -36 25 -64 28 -41 35 -45 72 -45 44 0 98 32 118
71 14 25 31 180 37 339 5 141 15 116 -101 265 -32 42 -92 127 -133 188 -79
119 -89 156 -45 167 l22 5 -24 35 c-14 19 -48 58 -77 85 -29 28 -84 97 -121
155 -67 103 -85 147 -124 297 l-18 72 26 128 c25 127 38 165 77 233 11 19 25
55 32 79 8 32 24 57 55 85 24 23 57 62 73 88 17 26 49 60 73 75 24 15 67 45
96 66 51 37 52 39 46 76 -6 35 -1 47 54 127 33 49 66 95 75 102 8 7 44 17 79
23 81 13 96 29 67 76 l-21 34 34 32 c19 18 44 50 56 73 11 22 37 55 57 72 33
30 40 32 113 32 92 0 118 13 108 53 -3 14 -18 32 -33 39 -17 8 -30 25 -35 45
-7 26 -14 32 -41 35 -44 4 -43 35 2 59 31 17 36 17 73 2 23 -9 43 -12 48 -7
23 23 80 149 80 175 0 38 -24 87 -61 121 -26 24 -29 34 -29 87 0 58 -1 61 -24
61 -15 0 -35 12 -53 33 -15 19 -43 39 -61 47 -38 15 -52 36 -52 79 0 20 -5 31
-14 31 -24 0 -29 20 -11 40 27 29 11 68 -50 127 -59 56 -79 109 -56 145 9 15
10 36 0 92 -18 117 6 201 71 239 28 17 31 17 37 1 5 -14 -3 -61 -23 -136 -3
-11 5 -27 20 -41 21 -20 25 -34 28 -93 3 -69 3 -69 31 -66 15 2 27 0 27 -5 0
-5 20 -42 45 -83 53 -90 59 -136 20 -181 -13 -16 -22 -36 -19 -44 10 -24 24
-17 24 11 0 14 11 39 24 55 19 22 25 45 31 111 5 57 15 98 32 132 28 56 25 91
-11 107 -12 6 -50 52 -83 102 -84 126 -86 132 -67 151 28 28 54 20 71 -24 9
-22 24 -42 34 -45 9 -3 34 -17 53 -30 33 -22 36 -23 44 -7 5 9 12 34 15 56 3
21 24 66 47 101 40 61 40 64 43 161 l2 99 -34 17 c-57 29 -66 42 -51 77 19 46
31 52 75 36 37 -13 41 -13 54 6 7 10 24 19 36 19 13 0 33 9 46 19 24 19 24 19
-31 5 -30 -8 -71 -13 -90 -12 -32 3 -35 6 -35 33 0 24 7 33 33 46 17 9 52 35
77 58 24 22 50 41 57 41 8 0 40 20 73 45 52 39 66 45 110 45 70 0 144 40 178
97 16 25 34 43 44 43 23 0 112 42 113 53 0 5 -34 52 -75 104 -74 93 -76 97
-69 138 4 32 1 52 -15 83 -27 54 -27 70 8 155 15 40 36 98 45 129 17 60 36 78
80 78 17 0 36 13 62 44 20 25 45 47 55 49 16 4 19 16 19 81 0 66 3 77 21 86
25 14 49 6 49 -15 0 -19 24 -19 40 0 7 8 23 15 35 15 17 0 38 19 75 65 28 35
70 80 93 99 l42 35 -25 26 c-14 15 -41 34 -60 44 -26 12 -36 23 -38 45 -3 22
-12 31 -41 43 -33 13 -41 24 -68 86 -16 40 -43 121 -58 181 -22 82 -39 124
-69 170 -53 78 -86 89 -132 45 -31 -30 -127 -73 -138 -62 -3 4 -6 15 -6 25 0
10 -7 18 -15 18 -9 0 -15 -9 -15 -24 0 -13 -13 -40 -30 -61 -16 -21 -30 -38
-31 -39 0 0 -4 -55 -8 -121 -5 -75 -14 -138 -26 -168 -17 -44 -17 -49 -1 -65
21 -24 20 -34 -9 -92 -14 -27 -25 -59 -25 -70 0 -23 -38 -87 -84 -142 -17 -21
-40 -49 -51 -63 -16 -19 -42 -31 -120 -50 -55 -14 -125 -28 -155 -31 -60 -7
-205 -45 -239 -64 -12 -6 -58 -17 -103 -25 -44 -8 -91 -21 -103 -29 -13 -9
-61 -71 -107 -140 -69 -103 -90 -128 -121 -141 -45 -18 -40 -35 9 -35 37 0 40
-6 22 -45 -10 -22 -8 -29 17 -55 39 -41 27 -79 -30 -98 -27 -9 -49 -26 -67
-52 -23 -33 -33 -39 -75 -45 -26 -3 -66 -10 -88 -14 -22 -5 -67 -7 -100 -4
-50 4 -75 -1 -154 -29 -52 -18 -96 -38 -98 -44 -2 -6 12 -30 32 -54 40 -48 46
-95 18 -128 -60 -69 -259 -241 -341 -296 -53 -35 -117 -85 -142 -111 -56 -58
-88 -75 -140 -75 -36 0 -46 -6 -77 -40 -20 -22 -43 -40 -51 -40 -8 0 -42 17
-76 38 -33 20 -79 39 -101 42 -37 5 -40 8 -43 39 -2 19 3 50 12 70 8 20 17 56
19 80 6 46 47 99 97 126 30 15 65 103 55 135 -4 11 -24 32 -46 47 -23 15 -39
34 -39 45 0 11 -6 46 -14 77 -8 31 -17 68 -20 84 -5 21 -12 27 -32 27 -48 0
-81 -26 -93 -74 -14 -58 -39 -73 -93 -57 -74 23 -86 82 -28 143 17 17 30 40
30 52 0 12 11 39 25 61 35 57 34 118 -2 150 -26 22 -27 25 -16 56 19 49 -8 72
-90 79 -60 5 -63 6 -81 43 -17 37 -20 38 -53 32 -26 -5 -40 -2 -54 11 -17 16
-19 16 -25 0 -4 -9 -20 -24 -36 -32 -22 -12 -27 -19 -19 -27 6 -6 11 -26 11
-45 0 -28 -5 -35 -30 -43 -25 -9 -30 -16 -30 -44 0 -66 -25 -85 -54 -43 -9 12
-17 20 -19 17 -2 -2 -27 -34 -55 -70 -55 -72 -55 -72 -65 -299 -2 -36 -6 -72
-10 -80 -5 -10 14 -48 53 -108 57 -89 60 -96 60 -156 0 -137 -43 -263 -118
-344 -38 -41 -40 -42 -106 -42 -58 0 -70 3 -91 25 -14 13 -25 31 -25 40 0 9
-11 38 -25 65 -21 41 -25 64 -25 130 0 63 -5 90 -21 123 -25 49 -27 155 -4
209 9 23 12 54 8 94 -5 54 -3 62 22 92 24 29 26 35 16 65 -9 26 -8 44 4 83 21
70 20 70 -31 25 -57 -50 -104 -57 -104 -15 0 15 15 47 34 73 18 25 43 80 55
121 30 100 59 149 91 156 33 7 41 11 66 29 20 15 23 14 39 -1 14 -15 18 -15
26 -3 5 8 9 17 9 22 0 17 67 47 105 47 34 0 43 5 57 30 10 17 24 33 33 36 27
11 68 -6 101 -42 40 -42 48 -42 64 -5 6 16 17 31 23 34 7 2 57 1 112 -3 55 -4
103 -5 108 -3 19 11 2 21 -44 25 -60 6 -103 35 -107 72 -3 25 -5 25 -25 11
-12 -9 -43 -15 -72 -15 -59 0 -99 22 -92 51 3 12 -2 23 -15 30 -16 8 -27 6
-57 -15 -28 -20 -50 -26 -88 -26 -45 0 -58 -5 -103 -41 -28 -22 -54 -47 -57
-55 -7 -18 -33 -18 -57 1 -11 9 -41 15 -69 15 -45 0 -52 4 -94 46 -48 50 -39
49 -151 28 -30 -6 -38 -2 -72 35 -21 22 -41 41 -44 41 -4 0 -35 -23 -70 -50
-35 -28 -79 -56 -98 -62 -18 -6 -47 -23 -64 -38 -41 -36 -143 -50 -180 -25
-26 17 -29 27 -14 55 16 30 -15 33 -68 6 -86 -43 -198 -71 -222 -56 -10 6 0
26 46 87 32 43 79 97 104 120 40 38 198 145 291 197 33 18 34 19 12 29 -13 5
-23 14 -23 19 0 5 -33 8 -73 7 -40 -1 -83 3 -94 10 -19 10 -24 7 -43 -24 -37
-60 -81 -59 -156 6 -27 23 -53 38 -63 35 -81 -23 -99 -18 -168 45 -47 43 -52
44 -100 27 -27 -10 -45 -9 -97 5 -35 9 -78 17 -95 17 -40 0 -109 28 -120 49
-5 9 -12 36 -16 61 -8 53 -24 87 -25 55 0 -11 -7 -31 -16 -43 l-15 -22 -462 0
c-997 1 -1644 33 -2442 120 -268 30 -439 60 -995 175 -195 40 -400 82 -455 94
-253 51 -963 203 -1079 231 -70 16 -156 41 -190 55 -35 14 -66 25 -69 25 -4 0
-7 -16 -7 -35z"/>
<path d="M8169 6744 c-56 -49 -68 -64 -49 -64 15 0 117 97 109 104 -3 3 -30
-15 -60 -40z"/>
<path d="M11940 5429 c0 -11 -15 -33 -32 -50 -39 -35 -37 -35 39 -7 82 31 90
38 63 60 -31 25 -70 24 -70 -3z"/>
</g>
</svg>
